<mxfile host="app.diagrams.net" modified="2024-06-04T17:26:51.288Z" agent="Mozilla/5.0 (Windows NT 10.0; Win64; x64; rv:126.0) Gecko/20100101 Firefox/126.0" etag="mOcOqo_ZgxBKQ4Gamzhm" version="24.4.13" type="google">
  <diagram name="Pagina-1" id="X5erSsI18YEtOsZ6ESDD">
    <mxGraphModel dx="1235" dy="656" grid="1" gridSize="10" guides="1" tooltips="1" connect="1" arrows="1" fold="1" page="1" pageScale="1" pageWidth="827" pageHeight="1169" math="0" shadow="0">
      <root>
        <mxCell id="0" />
        <mxCell id="1" parent="0" />
        <mxCell id="t36Ns3Kff7IHViRN0iUZ-1" value="" style="whiteSpace=wrap;html=1;aspect=fixed;" vertex="1" parent="1">
          <mxGeometry x="150" y="20" width="560" height="560" as="geometry" />
        </mxCell>
        <mxCell id="t36Ns3Kff7IHViRN0iUZ-2" value="Actor" style="shape=umlActor;verticalLabelPosition=bottom;verticalAlign=top;html=1;outlineConnect=0;" vertex="1" parent="1">
          <mxGeometry x="70" y="245" width="30" height="60" as="geometry" />
        </mxCell>
        <mxCell id="t36Ns3Kff7IHViRN0iUZ-6" value="&lt;div&gt;Aggiunta e&lt;br&gt;&lt;/div&gt;&lt;div&gt;Rimozione&lt;br&gt;&lt;/div&gt;" style="ellipse;whiteSpace=wrap;html=1;" vertex="1" parent="1">
          <mxGeometry x="230" y="30" width="120" height="80" as="geometry" />
        </mxCell>
        <mxCell id="t36Ns3Kff7IHViRN0iUZ-8" value="" style="endArrow=none;html=1;rounded=0;" edge="1" parent="1" target="t36Ns3Kff7IHViRN0iUZ-6">
          <mxGeometry width="50" height="50" relative="1" as="geometry">
            <mxPoint x="110" y="250" as="sourcePoint" />
            <mxPoint x="440" y="195" as="targetPoint" />
          </mxGeometry>
        </mxCell>
        <mxCell id="t36Ns3Kff7IHViRN0iUZ-9" value="Inizio Torneo" style="ellipse;whiteSpace=wrap;html=1;" vertex="1" parent="1">
          <mxGeometry x="220" y="165" width="130" height="80" as="geometry" />
        </mxCell>
        <mxCell id="t36Ns3Kff7IHViRN0iUZ-10" value="Visualizza Classifica Provissoria" style="ellipse;whiteSpace=wrap;html=1;" vertex="1" parent="1">
          <mxGeometry x="440" y="270" width="120" height="80" as="geometry" />
        </mxCell>
        <mxCell id="t36Ns3Kff7IHViRN0iUZ-11" value="&lt;div&gt;Vittoria&lt;/div&gt;&lt;div&gt;Sconfitta&lt;/div&gt;&lt;div&gt;Pareggio&lt;br&gt;&lt;/div&gt;" style="ellipse;whiteSpace=wrap;html=1;" vertex="1" parent="1">
          <mxGeometry x="225" y="280" width="120" height="80" as="geometry" />
        </mxCell>
        <mxCell id="t36Ns3Kff7IHViRN0iUZ-12" value="" style="endArrow=none;html=1;rounded=0;exitX=0;exitY=0.5;exitDx=0;exitDy=0;" edge="1" parent="1" source="t36Ns3Kff7IHViRN0iUZ-9">
          <mxGeometry width="50" height="50" relative="1" as="geometry">
            <mxPoint x="390" y="245" as="sourcePoint" />
            <mxPoint x="130" y="280" as="targetPoint" />
          </mxGeometry>
        </mxCell>
        <mxCell id="t36Ns3Kff7IHViRN0iUZ-16" value="Classifica Finale" style="ellipse;whiteSpace=wrap;html=1;" vertex="1" parent="1">
          <mxGeometry x="440" y="480" width="120" height="80" as="geometry" />
        </mxCell>
        <mxCell id="t36Ns3Kff7IHViRN0iUZ-17" value="Nuovi turni" style="ellipse;whiteSpace=wrap;html=1;" vertex="1" parent="1">
          <mxGeometry x="225" y="390" width="120" height="80" as="geometry" />
        </mxCell>
        <mxCell id="t36Ns3Kff7IHViRN0iUZ-20" value="" style="endArrow=classic;html=1;rounded=0;exitX=-0.008;exitY=0.638;exitDx=0;exitDy=0;exitPerimeter=0;entryX=1;entryY=0.5;entryDx=0;entryDy=0;" edge="1" parent="1" source="t36Ns3Kff7IHViRN0iUZ-10" target="t36Ns3Kff7IHViRN0iUZ-11">
          <mxGeometry width="50" height="50" relative="1" as="geometry">
            <mxPoint x="390" y="245" as="sourcePoint" />
            <mxPoint x="440" y="195" as="targetPoint" />
          </mxGeometry>
        </mxCell>
        <mxCell id="t36Ns3Kff7IHViRN0iUZ-21" value="" style="endArrow=classic;html=1;rounded=0;exitX=0.5;exitY=0;exitDx=0;exitDy=0;entryX=0.5;entryY=1;entryDx=0;entryDy=0;" edge="1" parent="1" source="t36Ns3Kff7IHViRN0iUZ-11" target="t36Ns3Kff7IHViRN0iUZ-9">
          <mxGeometry width="50" height="50" relative="1" as="geometry">
            <mxPoint x="449" y="356" as="sourcePoint" />
            <mxPoint x="360" y="335" as="targetPoint" />
          </mxGeometry>
        </mxCell>
        <mxCell id="t36Ns3Kff7IHViRN0iUZ-26" value="" style="endArrow=none;html=1;rounded=0;entryX=0;entryY=0.5;entryDx=0;entryDy=0;" edge="1" parent="1" target="t36Ns3Kff7IHViRN0iUZ-17">
          <mxGeometry width="50" height="50" relative="1" as="geometry">
            <mxPoint x="130" y="310" as="sourcePoint" />
            <mxPoint x="440" y="280" as="targetPoint" />
          </mxGeometry>
        </mxCell>
        <mxCell id="t36Ns3Kff7IHViRN0iUZ-27" value="Creazione Primi Abbinamenti" style="ellipse;whiteSpace=wrap;html=1;" vertex="1" parent="1">
          <mxGeometry x="440" y="165" width="120" height="80" as="geometry" />
        </mxCell>
        <mxCell id="t36Ns3Kff7IHViRN0iUZ-28" value="Creazione Abbinamenti" style="ellipse;whiteSpace=wrap;html=1;" vertex="1" parent="1">
          <mxGeometry x="440" y="390" width="120" height="80" as="geometry" />
        </mxCell>
        <mxCell id="t36Ns3Kff7IHViRN0iUZ-29" value="" style="endArrow=classic;html=1;rounded=0;exitX=0;exitY=0.5;exitDx=0;exitDy=0;entryX=1;entryY=0.5;entryDx=0;entryDy=0;" edge="1" parent="1" source="t36Ns3Kff7IHViRN0iUZ-28" target="t36Ns3Kff7IHViRN0iUZ-17">
          <mxGeometry width="50" height="50" relative="1" as="geometry">
            <mxPoint x="390" y="330" as="sourcePoint" />
            <mxPoint x="440" y="280" as="targetPoint" />
          </mxGeometry>
        </mxCell>
        <mxCell id="t36Ns3Kff7IHViRN0iUZ-30" value="" style="endArrow=classic;html=1;rounded=0;exitX=0;exitY=0.5;exitDx=0;exitDy=0;entryX=1;entryY=0.5;entryDx=0;entryDy=0;" edge="1" parent="1" source="t36Ns3Kff7IHViRN0iUZ-27" target="t36Ns3Kff7IHViRN0iUZ-9">
          <mxGeometry width="50" height="50" relative="1" as="geometry">
            <mxPoint x="390" y="300" as="sourcePoint" />
            <mxPoint x="440" y="250" as="targetPoint" />
          </mxGeometry>
        </mxCell>
        <mxCell id="t36Ns3Kff7IHViRN0iUZ-35" value="Fine Torneo" style="ellipse;whiteSpace=wrap;html=1;" vertex="1" parent="1">
          <mxGeometry x="225" y="480" width="120" height="80" as="geometry" />
        </mxCell>
        <mxCell id="t36Ns3Kff7IHViRN0iUZ-36" value="" style="endArrow=none;html=1;rounded=0;entryX=0;entryY=0.5;entryDx=0;entryDy=0;" edge="1" parent="1" target="t36Ns3Kff7IHViRN0iUZ-35">
          <mxGeometry width="50" height="50" relative="1" as="geometry">
            <mxPoint x="120" y="320" as="sourcePoint" />
            <mxPoint x="440" y="300" as="targetPoint" />
          </mxGeometry>
        </mxCell>
        <mxCell id="t36Ns3Kff7IHViRN0iUZ-37" value="" style="endArrow=classic;html=1;rounded=0;entryX=1;entryY=0.5;entryDx=0;entryDy=0;" edge="1" parent="1" source="t36Ns3Kff7IHViRN0iUZ-16" target="t36Ns3Kff7IHViRN0iUZ-35">
          <mxGeometry width="50" height="50" relative="1" as="geometry">
            <mxPoint x="390" y="350" as="sourcePoint" />
            <mxPoint x="440" y="300" as="targetPoint" />
          </mxGeometry>
        </mxCell>
      </root>
    </mxGraphModel>
  </diagram>
</mxfile>
